<?xml version="1.0" encoding="UTF-8" standalone="no"?>
<!DOCTYPE svg PUBLIC "-//W3C//DTD SVG 1.1//EN" "http://www.w3.org/Graphics/SVG/1.1/DTD/svg11.dtd">
<svg width="100%" height="100%" viewBox="0 0 1800 1800" version="1.1" xmlns="http://www.w3.org/2000/svg" xmlns:xlink="http://www.w3.org/1999/xlink" xml:space="preserve" xmlns:serif="http://www.serif.com/" style="fill-rule:evenodd;clip-rule:evenodd;stroke-linejoin:round;stroke-miterlimit:2;">
    <circle cx="900" cy="900" r="900" fill="#dedacf"/>
    <g transform="translate(381, 209.5)">
        <g transform="matrix(1,0,0,1,-647,-1394.665542)">
            <g>
                <g transform="matrix(1,0,0,1,-954,-353)">
                    <path d="M1602.308,1750.829L2003.308,1750.829L2003.308,1950.775L1765.64,2103.21C1760.055,2106.473 1747.438,2117.991 1741.956,2121.911C1666.868,2175.598 1602.308,2272.83 1602.308,2272.83L1602.308,1750.829Z" style="fill:rgb(131,130,54);"/>
                </g>
                <g transform="matrix(1,0,0,1,-954,-353)">
                    <path d="M2520.301,2939.565C2499.127,2965.149 2475.54,2988.672 2449.889,3009.786C2360.185,3083.627 2245.243,3128 2120,3128C1892.77,3128 1699.451,2981.936 1629.235,2778.829C1610.938,2725.901 1601,2669.1 1601,2610C1601,2438.337 1684.845,2286.065 1813.857,2191.788L2506.308,1747.666L2506.308,2264.218C2588.796,2355.943 2639,2477.166 2639,2610C2639,2698.649 2616.64,2782.127 2577.246,2855.118L2503.402,2780.866C2526.914,2728.71 2540,2670.869 2540,2610C2540,2551.686 2527.99,2496.152 2506.308,2445.733C2442.417,2297.16 2294.541,2193 2122.5,2193C2081.091,2193 2041.083,2199.034 2003.308,2210.269L2003.308,2778.829L1740.686,2778.829C1805.622,2924.967 1952.225,3027 2122.5,3027C2219.278,3027 2308.41,2994.039 2379.246,2938.754L2103.79,2661.777L2104.463,2521.431L2520.301,2939.565Z" style="fill:rgb(131,130,54);"/>
                </g>
            </g>
        </g>
    </g>
</svg>
